<?xml version="1.0" encoding="UTF-8" standalone="no"?>
<svg
   width="1200"
   height="627"
   viewBox="0 0 1200 627"
   version="1.1"
   id="svg17"
   sodipodi:docname="logo.svg"
   inkscape:version="1.4.3 (0d15f75042, 2025-12-25)"
   inkscape:export-filename="logo.png"
   inkscape:export-xdpi="53.501602"
   inkscape:export-ydpi="53.501602"
   xmlns:inkscape="http://www.inkscape.org/namespaces/inkscape"
   xmlns:sodipodi="http://sodipodi.sourceforge.net/DTD/sodipodi-0.dtd"
   xmlns="http://www.w3.org/2000/svg"
   xmlns:svg="http://www.w3.org/2000/svg">
  <defs
     id="defs17" />
  <sodipodi:namedview
     id="namedview17"
     pagecolor="#505050"
     bordercolor="#ffffff"
     borderopacity="1"
     inkscape:showpageshadow="0"
     inkscape:pageopacity="0"
     inkscape:pagecheckerboard="1"
     inkscape:deskcolor="#505050"
     inkscape:zoom="0.79125"
     inkscape:cx="564.92891"
     inkscape:cy="-115.0079"
     inkscape:window-width="2048"
     inkscape:window-height="2214"
     inkscape:window-x="0"
     inkscape:window-y="0"
     inkscape:window-maximized="1"
     inkscape:current-layer="svg17" />
  <g
     class="drawing-elements"
     id="g17">
    <defs
       id="defs1">
      <style
         id="style1">
      .cls-1 {
        fill: #fff;
      }
    </style>
    </defs>
    <path
       d="M390.02,484.25c-21.71-2.3-49.29-3.86-75.67-4.29-56.69-.89-147.99,16.65-167.68,20.59,6.76-9,28.27-36.14,60.32-62.99,10.68-8.96,22.84-18.09,34.6-26.93,32.07-24.1,65.24-49.02,74.98-74.74,5.87-15.49,6.08-26.66,.62-33.2-5.64-6.74-16.69-8.49-33.78-5.34-27.13,5-89.46,29.75-118.64,42.13-30.7,13.04-52.13,8.74-67.42-13.53-17.78-25.88-22.41-70.96-17.79-102.11,2.34-15.84,5.09-26.9,6.91-34.22,1.87-7.51,2.65-10.62,1.5-12.41-.4-.62-1-1.02-1.75-1.16-4.83-.91-33.97,19.01-51.42,46.77-19.04,30.29-14.83,63.85-4.55,85.14,4.92,10.2,9.2,17.46,12.49,22.44-6-5.02-13.89-12.32-20.15-20.56-11.52-15.17-13.64-28.86-13.66-29-.08-.6-.52-1.09-1.11-1.24-.59-.15-1.2,.07-1.57,.55-.52,.69-12.57,17.25-1.76,50.78,9.12,28.26,38.39,69.12,94.3,69.12,9.68,0,20.16-1.23,31.47-3.96-4.5,10.74-21.14,50.36-32.47,76.41-13.13,30.19-45.51,97.86-45.83,98.54-.29,.59-.15,1.3,.32,1.75,.29,.26,.66,.4,1.03,.4,.25,0,.5-.06,.73-.19,.39-.22,40.01-22.13,100.41-39.15,61.27-17.27,136.66-27.77,184.19-30.52l4.64-.27c64.86-3.74,81.31-5.26,81.31-10.4,0-1.66,0-4.75-34.57-8.41Zm-46.91,15.82l-4.64,.27c-47.7,2.76-123.34,13.3-184.83,30.62-49.69,14.01-85.43,31.32-97.02,37.29,7.23-15.18,32.65-68.63,43.92-94.56,13.16-30.23,33.44-78.72,33.64-79.2,.22-.53,.13-1.13-.25-1.56-.29-.34-.7-.52-1.13-.52-.13,0-.25,.01-.38,.05-76.4,19.93-114.56-29.88-125.07-62.45-7.63-23.66-3.3-38.56-.5-44.75,1.44,5.35,5.02,15.42,13.35,26.4,11.93,15.71,29.63,28.06,29.81,28.18,.64,.44,1.51,.33,2.01-.27,.49-.6,.45-1.48-.1-2.03-.08-.07-7.91-7.98-18.97-30.88-9.93-20.58-14-52.99,4.39-82.25,17.05-27.11,43.81-44.95,48.15-45.4,.23,1.22-.82,5.44-1.93,9.89-1.83,7.37-4.6,18.52-6.97,34.5-4.7,31.73,.07,77.73,18.29,104.25,16.01,23.33,39.26,28.1,71.07,14.6,29.06-12.35,91.13-37,118-41.95,15.72-2.9,26.12-1.45,30.93,4.31,4.72,5.65,4.34,15.82-1.11,30.22-9.44,24.9-42.25,49.56-73.99,73.41-11.78,8.85-23.97,18.01-34.72,27.02-39.29,32.91-62.9,66.33-63.13,66.67-.36,.5-.36,1.17-.03,1.68,.34,.52,.96,.77,1.56,.65,1.07-.23,107.68-22.35,170.84-21.3,55.68,.9,100.78,6.29,106.89,9.76-5.31,3.14-42.28,5.28-78.08,7.35Z"
       id="path1" />
    <path
       class="cls-1"
       d="M421.19,492.72c-5.31,3.14-42.28,5.28-78.08,7.35l-4.64,.27c-47.7,2.76-123.34,13.3-184.83,30.62-49.69,14.01-85.43,31.32-97.02,37.29,7.23-15.18,32.65-68.63,43.92-94.56,13.16-30.23,33.44-78.72,33.64-79.2,.22-.53,.13-1.13-.25-1.56-.29-.34-.7-.52-1.13-.52-.13,0-.25,.01-.38,.05-76.4,19.93-114.56-29.88-125.07-62.45-7.63-23.66-3.3-38.56-.5-44.75,1.44,5.35,5.02,15.42,13.35,26.4,11.93,15.71,29.63,28.06,29.81,28.18,.64,.44,1.51,.33,2.01-.27,.49-.6,.45-1.48-.1-2.03-.08-.07-7.91-7.98-18.97-30.88-9.93-20.58-14-52.99,4.39-82.25,17.05-27.11,43.81-44.95,48.15-45.4,.23,1.22-.82,5.44-1.93,9.89-1.83,7.37-4.6,18.52-6.97,34.5-4.7,31.73,.07,77.73,18.29,104.25,16.01,23.33,39.26,28.1,71.07,14.6,29.06-12.35,91.13-37,118-41.95,15.72-2.9,26.12-1.45,30.93,4.31,4.72,5.65,4.34,15.82-1.11,30.22-9.44,24.9-42.25,49.56-73.99,73.41-11.78,8.85-23.97,18.01-34.72,27.02-39.29,32.91-62.9,66.33-63.13,66.67-.36,.5-.36,1.17-.03,1.68,.34,.52,.96,.77,1.56,.65,1.07-.23,107.68-22.35,170.84-21.3,55.68,.9,100.78,6.29,106.89,9.76Z"
       id="path2" />
    <path
       d="M564.48,115.96c-4.73-5.06-14.2-5.51-28.97-4.59-24.64,1.53-45.97,6.64-50.26,7.72-4.96-4.37-37.27-32.47-59.08-42.52-6.96-3.2-13.78-4.83-20.06-5.49,.9-.1,1.79-.2,2.66-.3,5.66-.63,10.14-1.13,12.69-2.3,6.44-2.94,11.29-28.21,9.79-35.38-.63-3.02-2.37-4.12-3.71-4.51-4.83-1.43-13.23,3.9-24.97,15.81-13.95,14.15-22.87,27.02-24.6,29.59-.35,.11-.69,.22-.98,.33C370.36,12.98,350.71,.71,349.87,.21c-.51-.3-1.14-.27-1.62,.06-5.74,4-25.74,19.85-42.09,55.95-13.7,30.26-18.28,64.44-18.83,68.84-2.82,3.25-23.5,27.85-36.1,64.36-13.44,38.94-16.86,79.38-16.89,79.78-.05,.57,.23,1.12,.72,1.41,.49,.29,1.11,.28,1.59-.03,.35-.23,35.57-22.97,65.93-28.06,29.77-4.98,76.19,7.16,85.89,42.94,11.16,41.13-24.11,87.07-46.12,110.79-28.98,31.23-55.16,45.88-55.42,46.03-.61,.33-.91,1.04-.72,1.71,.18,.65,.77,1.1,1.44,1.1h.05c7.41-.26,14.99-1.76,23.02-3.35,11.52-2.28,24.58-4.85,40.81-4.6,32.54,.54,49.74,5.25,49.91,5.3,.47,.13,.98,.02,1.36-.29,.38-.32,.58-.79,.54-1.28-2.27-26.67,12.55-66.12,24.46-97.81,4.8-12.76,9.33-24.81,12.17-34.49,7.81-26.54,2.7-48.06,.53-55.17,7.54,1.3,14.3,1.83,20.33,1.83,27.56,0,39.75-11.13,40.37-11.72,.39-.36,.55-.9,.44-1.42-.11-.51-.49-.93-.99-1.1-34.96-11.52-59.42-43.52-66.61-53.87,10.3,2.71,39.04,9.87,60.31,11.17,26.26,1.59,43.08-3.7,46.72-6.37,3.65-2.66,23.64-35.8,26.29-56.32,1.33-10.34,.5-16.03-2.88-19.64ZM404.71,46.5c15.24-15.46,20.68-15.42,21.99-15.04,.52,.16,1.26,.56,1.61,2.26,1.43,6.81-3.84,30.09-8.1,32.03-2.11,.97-6.59,1.47-11.77,2.05-6.52,.73-14.59,1.64-21.16,3.92-1.74,.3-3.33,.64-4.75,.98,3.65-5.08,11.38-15.24,22.18-26.2Zm159.67,88.72c-2.57,19.98-22.32,52.23-25.08,54.28-2.75,2.02-19.13,7.35-44.77,5.79-25.9-1.58-63.17-11.99-63.54-12.1-.59-.17-1.23,.05-1.6,.54-.38,.49-.41,1.16-.09,1.69,.27,.43,26.48,42.49,67.74,57.5-5.9,3.97-24.36,13.55-58.5,7.08-.53-.1-1.08,.1-1.43,.52-.35,.42-.44,.99-.24,1.5,.09,.24,9.33,24.74,.22,55.71-2.81,9.57-7.32,21.57-12.1,34.27-11.71,31.18-26.22,69.79-24.78,97.04-5.46-1.27-21.72-4.45-48.63-4.9-16.56-.26-29.78,2.35-41.44,4.66-5.67,1.12-11.12,2.2-16.39,2.81,9.26-5.96,29.29-20.14,50.8-43.32,22.43-24.18,58.35-71.09,46.82-113.61-8.74-32.24-45.61-46.21-75.41-46.21-4.87,0-9.55,.37-13.88,1.09-26.14,4.38-55.66,21.49-64.46,26.88,1.06-10.04,5.24-43.58,16.44-76.04,13.27-38.44,35.59-63.44,35.81-63.69,.21-.23,.35-.53,.38-.84,.04-.36,4.24-36.6,18.64-68.41,15.48-34.18,34.68-50.05,40.2-54.1,3.67,3,19.59,18.96,25.12,73.2,.05,.47,.32,.89,.73,1.14,.41,.24,.91,.27,1.35,.09,.24-.1,23.9-9.88,48.62,1.51,22.77,10.48,58.58,42.24,58.94,42.56,.38,.33,.9,.46,1.39,.33,.23-.06,23.3-6.14,50.46-7.83,15.96-.99,23.17,0,26.59,3.65,2.69,2.87,3.3,7.86,2.09,17.21Z"
       class=""
       id="path3" />
    <path
       class="cls-1"
       d="M420.21,65.75c-2.11,.97-6.59,1.47-11.77,2.05-6.52,.73-14.59,1.64-21.16,3.92-1.74,.3-3.33,.64-4.75,.98,3.65-5.08,11.38-15.24,22.18-26.2,15.24-15.46,20.68-15.42,21.99-15.04,.52,.16,1.26,.56,1.61,2.26,1.43,6.81-3.84,30.09-8.1,32.03Z"
       id="path4" />
    <path
       class="cls-1"
       d="M562.29,118.01c-3.42-3.65-10.63-4.64-26.59-3.65-27.16,1.69-50.23,7.77-50.46,7.83-.49,.13-1.01,0-1.39-.33-.36-.32-36.17-32.08-58.94-42.56-24.72-11.39-48.38-1.61-48.62-1.51-.44,.18-.94,.15-1.35-.09-.41-.25-.68-.67-.73-1.14-5.53-54.24-21.45-70.2-25.12-73.2-5.52,4.05-24.72,19.92-40.2,54.1-14.4,31.81-18.6,68.05-18.64,68.41-.03,.31-.17,.61-.38,.84-.22,.25-22.54,25.25-35.81,63.69-11.2,32.46-15.38,66-16.44,76.04,8.8-5.39,38.32-22.5,64.46-26.88,4.33-.72,9.01-1.09,13.88-1.09,29.8,0,66.67,13.97,75.41,46.21,11.53,42.52-24.39,89.43-46.82,113.61-21.51,23.18-41.54,37.36-50.8,43.32,5.27-.61,10.72-1.69,16.39-2.81,11.66-2.31,24.88-4.92,41.44-4.66,26.91,.45,43.17,3.63,48.63,4.9-1.44-27.25,13.07-65.86,24.78-97.04,4.78-12.7,9.29-24.7,12.1-34.27,9.11-30.97-.13-55.47-.22-55.71-.2-.51-.11-1.08,.24-1.5,.35-.42,.9-.62,1.43-.52,34.14,6.47,52.6-3.11,58.5-7.08-41.26-15.01-67.47-57.07-67.74-57.5-.32-.53-.29-1.2,.09-1.69,.37-.49,1.01-.71,1.6-.54,.37,.11,37.64,10.52,63.54,12.1,25.64,1.56,42.02-3.77,44.77-5.79,2.76-2.05,22.51-34.3,25.08-54.28,1.21-9.35,.6-14.34-2.09-17.21Zm-104.23,14.38c-.16,.46-.53,.81-1,.95-.12,.03-11.88,3.4-22.3,5.38-10.49,1.99-16.76,2.01-17.02,2.01-.5,0-.97-.25-1.24-.66-.28-.42-.34-.94-.14-1.41,.15-.38,3.92-9.42,11.19-17.69,3.1-3.54,6.5-5.39,10.1-5.5,3.99-.11,8.06,1.89,12.11,5.97,4.48,4.51,7.96,9.38,8.11,9.59,.28,.39,.35,.9,.19,1.36Z"
       id="path5" />
    <path
       d="M457.87,131.03c-.15-.21-3.63-5.08-8.11-9.59-4.05-4.08-8.12-6.08-12.11-5.97-3.6,.11-7,1.96-10.1,5.5-7.27,8.27-11.04,17.31-11.19,17.69-.2,.47-.14,.99,.14,1.41,.27,.41,.74,.66,1.24,.66,.26,0,6.53-.02,17.02-2.01,10.42-1.98,22.18-5.35,22.3-5.38,.47-.14,.84-.49,1-.95,.16-.46,.09-.97-.19-1.36Zm-23.67,4.74c-6.49,1.23-11.37,1.69-14.07,1.86,1.54-3.13,4.81-9.15,9.67-14.68,2.54-2.89,5.21-4.39,7.94-4.48h.25c3.05,0,6.3,1.71,9.64,5.08,2.72,2.74,5.11,5.69,6.5,7.49-3.83,1.05-12.26,3.28-19.93,4.73Z"
       class=""
       id="path6" />
    <path
       d="M552.64,228.09c-8.07-15.67-39.16-32.67-76.54-23.82-.48,.11-.87,.46-1.05,.91-.18,.46-.13,.98,.15,1.39,.53,.78,13.22,19.38,38.82,33.27,9.48,5.14,17.8,7.22,24.38,7.22,5.89,0,10.39-1.67,13.08-4.3,3.69-3.61,4.11-8.95,1.16-14.67Zm-3.26,12.52c-4.75,4.65-17.39,5.57-33.93-3.41-20.36-11.05-32.59-25.5-36.44-30.51,34.89-7.34,63.5,8.28,70.97,22.77,2.33,4.53,2.12,8.5-.6,11.15Z"
       id="path7" />
    <path
       class="cls-1"
       d="M549.38,240.61c-4.75,4.65-17.39,5.57-33.93-3.41-20.36-11.05-32.59-25.5-36.44-30.51,34.89-7.34,63.5,8.28,70.97,22.77,2.33,4.53,2.12,8.5-.6,11.15Z"
       id="path8"
       style="fill:#ff5555" />
    <path
       d="M642.63,190.09c-22.7-7.61-46.26-9.45-46.49-9.47-.8-.06-1.5,.5-1.6,1.29l-13.25,96.52c-24.14-11.45-68.47-5.62-103.23,24.46-33.91,29.35-56.82,76.41-55.7,114.45,.88,30.08,10.3,80.2,63.22,80.2,.53,0,1.06-.01,1.59-.02,43.2-.8,65.6-25.56,70.7-32.01,32.88,35.58,86.04,24.61,86.58,24.49,.46-.1,.84-.4,1.04-.83,.2-.42,.19-.91-.02-1.33-14.86-28.76-13.38-77.99-7.04-114.46,4.27-24.57,12.84-63.79,19.73-95.3,4.22-19.35,7.87-36.05,9.62-45.16,4.67-24.46-1.44-34.87-25.15-42.83Zm22.2,42.26c-1.73,9.07-5.38,25.76-9.6,45.09-6.9,31.54-15.48,70.79-19.75,95.42-6.3,36.21-7.81,84.92,6.42,114.55-9.8,1.58-54.84,6.76-83.01-25.24-.3-.35-.75-.54-1.22-.51-.46,.03-.89,.28-1.15,.66-.21,.31-21.6,31.31-69.4,32.2-51.73,1.02-60.91-47.99-61.76-77.27-1.09-37.2,21.39-83.29,54.66-112.09,23.38-20.23,51.09-29.25,73.64-29.25,10.95,0,20.69,2.13,28.12,6.12,.44,.24,.96,.24,1.39,.02,.44-.22,.74-.65,.81-1.13l13.33-97.19c5.37,.52,25.19,2.77,44.36,9.21,22.37,7.5,27.57,16.34,23.16,39.41Z"
       id="path9" />
    <path
       class="cls-1"
       d="M641.67,192.94c-19.17-6.44-38.99-8.69-44.36-9.21l-13.33,97.19c-.07,.48-.37,.91-.81,1.13-.43,.22-.95,.22-1.39-.02-7.43-3.99-17.17-6.12-28.12-6.12-22.55,0-50.26,9.02-73.64,29.25-33.27,28.8-55.75,74.89-54.66,112.09,.85,29.28,10.03,78.29,61.76,77.27,47.8-.89,69.19-31.89,69.4-32.2,.26-.38,.69-.63,1.15-.66,.47-.03,.92,.16,1.22,.51,28.17,32,73.21,26.82,83.01,25.24-14.23-29.63-12.72-78.34-6.42-114.55,4.27-24.63,12.85-63.88,19.75-95.42,4.22-19.33,7.87-36.02,9.6-45.09,4.41-23.07-.79-31.91-23.16-39.41Zm-81.98,203.51c-12.6,23.52-31.64,38.91-46.33,38.91-3.03,0-5.88-.66-8.44-2.04-15-8.03-14.82-37.65,.38-66.02,7.29-13.6,16.9-24.93,27.06-31.91,10.44-7.18,20.29-8.94,27.72-4.96,7.43,3.98,11.41,13.16,11.21,25.83-.19,12.32-4.31,26.6-11.6,40.19Z"
       id="path10" />
    <path
       d="M560.08,330.43c-7.43-3.98-17.28-2.22-27.72,4.96-10.16,6.98-19.77,18.31-27.06,31.91-15.2,28.37-15.38,57.99-.38,66.02,2.56,1.38,5.41,2.04,8.44,2.04,14.69,0,33.73-15.39,46.33-38.91,7.29-13.59,11.41-27.87,11.6-40.19,.2-12.67-3.78-21.85-11.21-25.83Zm-3.03,64.61c-14.43,26.91-37.17,42.9-50.71,35.64s-12.82-35.05,1.61-61.96c7.07-13.19,16.34-24.14,26.1-30.86,6.28-4.31,12.23-6.52,17.4-6.52,2.63,0,5.05,.58,7.21,1.73,6.39,3.43,9.81,11.65,9.63,23.15-.18,11.85-4.18,25.63-11.24,38.82Z"
       id="path11" />
    <path
       d="M869.88,346.98c-4.74-47.73-42.84-73.46-78.51-77.77-34.45-4.17-82.99,7.5-115.89,52.73-28.02,38.53-30.83,61.73-31.31,82.18-.79,33.47,8.68,58.01,28.97,75.01,15.64,13.12,35.3,19.94,57.22,19.94,2.5,0,5.03-.08,7.58-.26,22.34-1.56,46.43-10.08,67.83-24,41.13-26.76,68.69-81.71,64.11-127.83Zm-65.75,125.31c-20.33,13.23-47.38,23.79-74.2,23.78-19.26,0-38.41-5.44-54.87-19.23-19.53-16.38-28.66-40.15-27.89-72.65,.47-19.98,3.23-42.65,30.74-80.48,32.14-44.19,79.49-55.59,113.1-51.52,34.48,4.17,71.31,29,75.89,75.09,4.48,45.08-22.51,98.82-62.77,125.01Z"
       id="path12" />
    <path
       class="cls-1"
       d="M866.9,347.28c-4.58-46.09-41.41-70.92-75.89-75.09-33.61-4.07-80.96,7.33-113.1,51.52-27.51,37.83-30.27,60.5-30.74,80.48-.77,32.5,8.36,56.27,27.89,72.65,16.46,13.79,35.61,19.23,54.87,19.23,26.82,.01,53.87-10.55,74.2-23.78,40.26-26.19,67.25-79.93,62.77-125.01Zm-115.84,94.25c-2.92,.75-5.69,1.13-8.29,1.13-5.43,0-10.15-1.64-14.09-4.92-11.34-9.44-13.11-29.85-12.36-40.42,1.01-14.25,4.8-32.16,25.26-56.95,11.53-13.97,26.61-19.85,39.37-15.34,11.52,4.08,18.48,15.42,18.62,30.34,.35,35.49-12.21,76.76-48.51,86.16Z"
       id="path13" />
    <path
       d="M780.95,325.03c-12.76-4.51-27.84,1.37-39.37,15.34-20.46,24.79-24.25,42.7-25.26,56.95-.75,10.57,1.02,30.98,12.36,40.42,3.94,3.28,8.66,4.92,14.09,4.92,2.6,0,5.37-.38,8.29-1.13,36.3-9.4,48.86-50.67,48.51-86.16-.14-14.92-7.1-26.26-18.62-30.34Zm-30.64,113.59c-8.03,2.08-14.67,1.01-19.71-3.18-10.43-8.69-11.94-28.6-11.28-37.91,.97-13.78,4.65-31.12,24.57-55.25,8.38-10.15,18.66-15.74,28.26-15.74,2.67,0,5.29,.43,7.8,1.32,10.28,3.64,16.49,13.93,16.62,27.54,.34,34.36-11.64,74.26-46.26,83.22Z"
       id="path14" />
    <path
       d="M1147.11,258.93c-1.49-1.47-3.59-1.99-5.6-1.38l-84.16,25.43c-4.85-2.86-38.2-21.13-82.72-11.76-47.22,9.94-88.33,52.08-99.98,102.48-6.87,29.73-2.73,58.47,11.36,78.85,11.37,16.45,28.81,26.68,50.44,29.6,3.21,.43,6.36,.63,9.45,.63,34.77,0,61.88-25.49,71.67-36.13-3.41,13.07-14.56,45.22-44.43,61.98-40.18,22.53-102.79,8.48-134-30.06-.31-.37-.75-.57-1.25-.55-.48,.02-.91,.27-1.18,.68-.29,.45-7.19,11.22-8.59,27.4-1.3,14.92,2.1,37.37,25.64,59.57,16.88,15.93,43.02,24.67,72.98,24.67,4.02,0,8.11-.15,12.25-.47,45.94-3.54,88.54-25.16,113.95-57.84,34.2-43.99,46.73-91.01,53.47-116.27,.48-1.82,.94-3.52,1.37-5.1,5.41-19.93,32.61-116.92,40.82-146.16,.57-2.02,.01-4.11-1.49-5.57Zm-1.4,4.75c-8.2,29.26-35.41,126.25-40.83,146.19-.43,1.59-.89,3.3-1.37,5.11-6.68,25.06-19.11,71.7-52.94,115.21-24.53,31.55-67.37,53.27-111.81,56.68-34.17,2.63-64.41-5.89-82.94-23.38-18.16-17.12-26.47-36.3-24.73-57,1-11.76,5.14-20.7,7.1-24.35,15.92,18.8,39,32.13,65.25,37.61,25.92,5.42,51.86,2.32,71.16-8.51,39.16-21.96,47.15-69.37,47.22-69.84,.11-.68-.25-1.35-.88-1.62-.64-.27-1.37-.08-1.79,.46-.35,.46-35.48,45.23-82.3,38.93-20.77-2.79-37.5-12.59-48.38-28.32-13.61-19.69-17.58-47.56-10.9-76.48,11.4-49.3,51.56-90.51,97.68-100.22,46.72-9.83,80.74,11.51,81.08,11.72,.37,.24,.82,.3,1.25,.18l84.79-25.63c.95-.29,1.94-.04,2.65,.65,.7,.69,.96,1.67,.69,2.61Z"
       id="path15" />
    <path
       class="cls-1"
       d="M1145.02,261.07c-.71-.69-1.7-.94-2.65-.65l-84.79,25.63c-.43,.12-.88,.06-1.25-.18-.34-.21-34.36-21.55-81.08-11.72-46.12,9.71-86.28,50.92-97.68,100.22-6.68,28.92-2.71,56.79,10.9,76.48,10.88,15.73,27.61,25.53,48.38,28.32,46.82,6.3,81.95-38.47,82.3-38.93,.42-.54,1.15-.73,1.79-.46,.63,.27,.99,.94,.88,1.62-.07,.47-8.06,47.88-47.22,69.84-19.3,10.83-45.24,13.93-71.16,8.51-26.25-5.48-49.33-18.81-65.25-37.61-1.96,3.65-6.1,12.59-7.1,24.35-1.74,20.7,6.57,39.88,24.73,57,18.53,17.49,48.77,26.01,82.94,23.38,44.44-3.41,87.28-25.13,111.81-56.68,33.83-43.51,46.26-90.15,52.94-115.21,.48-1.81,.94-3.52,1.37-5.11,5.42-19.94,32.63-116.93,40.83-146.19,.27-.94,.01-1.92-.69-2.61Zm-122.07,133.06c-7.7,11.93-18.23,21.05-29.64,25.68-5.29,2.14-10.48,3.21-15.38,3.21-5.85,0-11.29-1.52-15.98-4.55-8.63-5.57-13.65-15.52-14.15-28.02-.48-12.31,3.49-25.66,11.19-37.59,7.7-11.94,18.23-21.06,29.64-25.69,11.6-4.7,22.73-4.22,31.36,1.35,17.63,11.37,18.96,40.81,2.96,65.61Z"
       id="path16" />
    <path
       d="M1019.99,328.52c-8.63-5.57-19.76-6.05-31.36-1.35-11.41,4.63-21.94,13.75-29.64,25.69-7.7,11.93-11.67,25.28-11.19,37.59,.5,12.5,5.52,22.45,14.15,28.02,4.69,3.03,10.13,4.55,15.98,4.55,4.9,0,10.09-1.07,15.38-3.21,11.41-4.63,21.94-13.75,29.64-25.68,16-24.8,14.67-54.24-2.96-65.61Zm.44,63.98c-7.37,11.42-17.4,20.13-28.25,24.53-10.67,4.33-20.82,3.94-28.61-1.08-7.78-5.02-12.32-14.12-12.77-25.62-.46-11.7,3.34-24.43,10.71-35.85,7.37-11.42,17.4-20.13,28.25-24.52,4.91-2,9.72-2.99,14.24-2.99,5.28,0,10.17,1.36,14.36,4.07,16.25,10.48,17.17,38.05,2.07,61.46Z"
       id="path17" />
  </g>
</svg>
