<svg xmlns="http://www.w3.org/2000/svg" version="1.1" xmlns:xlink="http://www.w3.org/1999/xlink" width="567.96075" height="573.18744"><svg xmlns="http://www.w3.org/2000/svg" version="1.1" xmlns:xlink="http://www.w3.org/1999/xlink" width="567.96075" height="573.18744"><svg width="567.96075" height="573.18744" viewBox="0 0 567.96076 573.18744" version="1.1" id="svg17" sodipodi:docname="icon.svg" inkscape:version="1.4.3 (0d15f75042, 2025-12-25)" inkscape:export-filename="logo.png" inkscape:export-xdpi="53.501602" inkscape:export-ydpi="53.501602" xmlns:inkscape="http://www.inkscape.org/namespaces/inkscape" xmlns:sodipodi="http://sodipodi.sourceforge.net/DTD/sodipodi-0.dtd" xmlns="http://www.w3.org/2000/svg" xmlns:svg="http://www.w3.org/2000/svg">
  <defs id="defs17"></defs>
  <sodipodi:namedview id="namedview17" pagecolor="#505050" bordercolor="#ffffff" borderopacity="1" inkscape:showpageshadow="0" inkscape:pageopacity="0" inkscape:pagecheckerboard="1" inkscape:deskcolor="#505050" inkscape:zoom="0.79125" inkscape:cx="-222.43286" inkscape:cy="35.387046" inkscape:window-width="3840" inkscape:window-height="1510" inkscape:window-x="0" inkscape:window-y="0" inkscape:window-maximized="1" inkscape:current-layer="g17">
    <inkscape:page x="0" y="0" width="567.96075" height="573.18744" id="page1" margin="0" bleed="0"></inkscape:page>
  </sodipodi:namedview>
  <g class="drawing-elements" id="g17" transform="translate(-0.00251686,-0.00254601)">
    <defs id="defs1">
      <style id="style1">
      .cls-1 {
        fill: #fff;
      }
    </style>
    </defs>
    <path d="m 390.02,484.25 c -21.71,-2.3 -49.29,-3.86 -75.67,-4.29 -56.69,-0.89 -147.99,16.65 -167.68,20.59 6.76,-9 28.27,-36.14 60.32,-62.99 10.68,-8.96 22.84,-18.09 34.6,-26.93 32.07,-24.1 65.24,-49.02 74.98,-74.74 5.87,-15.49 6.08,-26.66 0.62,-33.2 -5.64,-6.74 -16.69,-8.49 -33.78,-5.34 -27.13,5 -89.46,29.75 -118.64,42.13 -30.7,13.04 -52.13,8.74 -67.42,-13.53 -17.78,-25.88 -22.41,-70.96 -17.79,-102.11 2.34,-15.84 5.09,-26.9 6.91,-34.22 1.87,-7.51 2.65,-10.62 1.5,-12.41 -0.4,-0.62 -1,-1.02 -1.75,-1.16 -4.83,-0.91 -33.97,19.01 -51.42,46.77 -19.04,30.29 -14.83,63.85 -4.55,85.14 4.92,10.2 9.2,17.46 12.49,22.44 -6,-5.02 -13.89,-12.32 -20.15,-20.56 -11.52,-15.17 -13.64,-28.86 -13.66,-29 -0.08,-0.6 -0.52,-1.09 -1.11,-1.24 -0.59,-0.15 -1.2,0.07 -1.57,0.55 -0.52,0.69 -12.57,17.25 -1.76,50.78 9.12,28.26 38.39,69.12 94.3,69.12 9.68,0 20.16,-1.23 31.47,-3.96 -4.5,10.74 -21.14,50.36 -32.47,76.41 -13.13,30.19 -45.51,97.86 -45.83,98.54 -0.29,0.59 -0.15,1.3 0.32,1.75 0.29,0.26 0.66,0.4 1.03,0.4 0.25,0 0.5,-0.06 0.73,-0.19 0.39,-0.22 40.01,-22.13 100.41,-39.15 61.27,-17.27 136.66,-27.77 184.19,-30.52 l 4.64,-0.27 c 64.86,-3.74 81.31,-5.26 81.31,-10.4 0,-1.66 0,-4.75 -34.57,-8.41 z m -46.91,15.82 -4.64,0.27 c -47.7,2.76 -123.34,13.3 -184.83,30.62 -49.69,14.01 -85.43,31.32 -97.02,37.29 7.23,-15.18 32.65,-68.63 43.92,-94.56 13.16,-30.23 33.44,-78.72 33.64,-79.2 0.22,-0.53 0.13,-1.13 -0.25,-1.56 -0.29,-0.34 -0.7,-0.52 -1.13,-0.52 -0.13,0 -0.25,0.01 -0.38,0.05 -76.4,19.93 -114.56,-29.88 -125.07,-62.45 -7.63,-23.66 -3.3,-38.56 -0.5,-44.75 1.44,5.35 5.02,15.42 13.35,26.4 11.93,15.71 29.63,28.06 29.81,28.18 0.64,0.44 1.51,0.33 2.01,-0.27 0.49,-0.6 0.45,-1.48 -0.1,-2.03 -0.08,-0.07 -7.91,-7.98 -18.97,-30.88 -9.93,-20.58 -14,-52.99 4.39,-82.25 17.05,-27.11 43.81,-44.95 48.15,-45.4 0.23,1.22 -0.82,5.44 -1.93,9.89 -1.83,7.37 -4.6,18.52 -6.97,34.5 -4.7,31.73 0.07,77.73 18.29,104.25 16.01,23.33 39.26,28.1 71.07,14.6 29.06,-12.35 91.13,-37 118,-41.95 15.72,-2.9 26.12,-1.45 30.93,4.31 4.72,5.65 4.34,15.82 -1.11,30.22 -9.44,24.9 -42.25,49.56 -73.99,73.41 -11.78,8.85 -23.97,18.01 -34.72,27.02 -39.29,32.91 -62.9,66.33 -63.13,66.67 -0.36,0.5 -0.36,1.17 -0.03,1.68 0.34,0.52 0.96,0.77 1.56,0.65 1.07,-0.23 107.68,-22.35 170.84,-21.3 55.68,0.9 100.78,6.29 106.89,9.76 -5.31,3.14 -42.28,5.28 -78.08,7.35 z" id="path1"></path>
    <path class="cls-1" d="m 421.19,492.72 c -5.31,3.14 -42.28,5.28 -78.08,7.35 l -4.64,0.27 c -47.7,2.76 -123.34,13.3 -184.83,30.62 -49.69,14.01 -85.43,31.32 -97.02,37.29 7.23,-15.18 32.65,-68.63 43.92,-94.56 13.16,-30.23 33.44,-78.72 33.64,-79.2 0.22,-0.53 0.13,-1.13 -0.25,-1.56 -0.29,-0.34 -0.7,-0.52 -1.13,-0.52 -0.13,0 -0.25,0.01 -0.38,0.05 -76.4,19.93 -114.56,-29.88 -125.07,-62.45 -7.63,-23.66 -3.3,-38.56 -0.5,-44.75 1.44,5.35 5.02,15.42 13.35,26.4 11.93,15.71 29.63,28.06 29.81,28.18 0.64,0.44 1.51,0.33 2.01,-0.27 0.49,-0.6 0.45,-1.48 -0.1,-2.03 -0.08,-0.07 -7.91,-7.98 -18.97,-30.88 -9.93,-20.58 -14,-52.99 4.39,-82.25 17.05,-27.11 43.81,-44.95 48.15,-45.4 0.23,1.22 -0.82,5.44 -1.93,9.89 -1.83,7.37 -4.6,18.52 -6.97,34.5 -4.7,31.73 0.07,77.73 18.29,104.25 16.01,23.33 39.26,28.1 71.07,14.6 29.06,-12.35 91.13,-37 118,-41.95 15.72,-2.9 26.12,-1.45 30.93,4.31 4.72,5.65 4.34,15.82 -1.11,30.22 -9.44,24.9 -42.25,49.56 -73.99,73.41 -11.78,8.85 -23.97,18.01 -34.72,27.02 -39.29,32.91 -62.9,66.33 -63.13,66.67 -0.36,0.5 -0.36,1.17 -0.03,1.68 0.34,0.52 0.96,0.77 1.56,0.65 1.07,-0.23 107.68,-22.35 170.84,-21.3 55.68,0.9 100.78,6.29 106.89,9.76 z" id="path2"></path>
    <path d="m 564.48,115.96 c -4.73,-5.06 -14.2,-5.51 -28.97,-4.59 -24.64,1.53 -45.97,6.64 -50.26,7.72 -4.96,-4.37 -37.27,-32.47 -59.08,-42.52 -6.96,-3.2 -13.78,-4.83 -20.06,-5.49 0.9,-0.1 1.79,-0.2 2.66,-0.3 5.66,-0.63 10.14,-1.13 12.69,-2.3 6.44,-2.94 11.29,-28.21 9.79,-35.38 -0.63,-3.02 -2.37,-4.12 -3.71,-4.51 -4.83,-1.43 -13.23,3.9 -24.97,15.81 -13.95,14.15 -22.87,27.02 -24.6,29.59 -0.35,0.11 -0.69,0.22 -0.98,0.33 -6.63,-61.34 -26.28,-73.61 -27.12,-74.11 -0.51,-0.3 -1.14,-0.27 -1.62,0.06 -5.74,4 -25.74,19.85 -42.09,55.95 -13.7,30.26 -18.28,64.44 -18.83,68.84 -2.82,3.25 -23.5,27.85 -36.1,64.36 -13.44,38.94 -16.86,79.38 -16.89,79.78 -0.05,0.57 0.23,1.12 0.72,1.41 0.49,0.29 1.11,0.28 1.59,-0.03 0.35,-0.23 35.57,-22.97 65.93,-28.06 29.77,-4.98 76.19,7.16 85.89,42.94 11.16,41.13 -24.11,87.07 -46.12,110.79 -28.98,31.23 -55.16,45.88 -55.42,46.03 -0.61,0.33 -0.91,1.04 -0.72,1.71 0.18,0.65 0.77,1.1 1.44,1.1 h 0.05 c 7.41,-0.26 14.99,-1.76 23.02,-3.35 11.52,-2.28 24.58,-4.85 40.81,-4.6 32.54,0.54 49.74,5.25 49.91,5.3 0.47,0.13 0.98,0.02 1.36,-0.29 0.38,-0.32 0.58,-0.79 0.54,-1.28 -2.27,-26.67 12.55,-66.12 24.46,-97.81 4.8,-12.76 9.33,-24.81 12.17,-34.49 7.81,-26.54 2.7,-48.06 0.53,-55.17 7.54,1.3 14.3,1.83 20.33,1.83 27.56,0 39.75,-11.13 40.37,-11.72 0.39,-0.36 0.55,-0.9 0.44,-1.42 -0.11,-0.51 -0.49,-0.93 -0.99,-1.1 -34.96,-11.52 -59.42,-43.52 -66.61,-53.87 10.3,2.71 39.04,9.87 60.31,11.17 26.26,1.59 43.08,-3.7 46.72,-6.37 3.65,-2.66 23.64,-35.8 26.29,-56.32 1.33,-10.34 0.5,-16.03 -2.88,-19.64 z M 404.71,46.5 c 15.24,-15.46 20.68,-15.42 21.99,-15.04 0.52,0.16 1.26,0.56 1.61,2.26 1.43,6.81 -3.84,30.09 -8.1,32.03 -2.11,0.97 -6.59,1.47 -11.77,2.05 -6.52,0.73 -14.59,1.64 -21.16,3.92 -1.74,0.3 -3.33,0.64 -4.75,0.98 3.65,-5.08 11.38,-15.24 22.18,-26.2 z m 159.67,88.72 c -2.57,19.98 -22.32,52.23 -25.08,54.28 -2.75,2.02 -19.13,7.35 -44.77,5.79 -25.9,-1.58 -63.17,-11.99 -63.54,-12.1 -0.59,-0.17 -1.23,0.05 -1.6,0.54 -0.38,0.49 -0.41,1.16 -0.09,1.69 0.27,0.43 26.48,42.49 67.74,57.5 -5.9,3.97 -24.36,13.55 -58.5,7.08 -0.53,-0.1 -1.08,0.1 -1.43,0.52 -0.35,0.42 -0.44,0.99 -0.24,1.5 0.09,0.24 9.33,24.74 0.22,55.71 -2.81,9.57 -7.32,21.57 -12.1,34.27 -11.71,31.18 -26.22,69.79 -24.78,97.04 -5.46,-1.27 -21.72,-4.45 -48.63,-4.9 -16.56,-0.26 -29.78,2.35 -41.44,4.66 -5.67,1.12 -11.12,2.2 -16.39,2.81 9.26,-5.96 29.29,-20.14 50.8,-43.32 22.43,-24.18 58.35,-71.09 46.82,-113.61 -8.74,-32.24 -45.61,-46.21 -75.41,-46.21 -4.87,0 -9.55,0.37 -13.88,1.09 -26.14,4.38 -55.66,21.49 -64.46,26.88 1.06,-10.04 5.24,-43.58 16.44,-76.04 13.27,-38.44 35.59,-63.44 35.81,-63.69 0.21,-0.23 0.35,-0.53 0.38,-0.84 0.04,-0.36 4.24,-36.6 18.64,-68.41 15.48,-34.18 34.68,-50.05 40.2,-54.1 3.67,3 19.59,18.96 25.12,73.2 0.05,0.47 0.32,0.89 0.73,1.14 0.41,0.24 0.91,0.27 1.35,0.09 0.24,-0.1 23.9,-9.88 48.62,1.51 22.77,10.48 58.58,42.24 58.94,42.56 0.38,0.33 0.9,0.46 1.39,0.33 0.23,-0.06 23.3,-6.14 50.46,-7.83 15.96,-0.99 23.17,0 26.59,3.65 2.69,2.87 3.3,7.86 2.09,17.21 z" class="" id="path3"></path>
    <path class="cls-1" d="m 420.21,65.75 c -2.11,0.97 -6.59,1.47 -11.77,2.05 -6.52,0.73 -14.59,1.64 -21.16,3.92 -1.74,0.3 -3.33,0.64 -4.75,0.98 3.65,-5.08 11.38,-15.24 22.18,-26.2 15.24,-15.46 20.68,-15.42 21.99,-15.04 0.52,0.16 1.26,0.56 1.61,2.26 1.43,6.81 -3.84,30.09 -8.1,32.03 z" id="path4"></path>
    <path class="cls-1" d="m 562.29,118.01 c -3.42,-3.65 -10.63,-4.64 -26.59,-3.65 -27.16,1.69 -50.23,7.77 -50.46,7.83 -0.49,0.13 -1.01,0 -1.39,-0.33 -0.36,-0.32 -36.17,-32.08 -58.94,-42.56 -24.72,-11.39 -48.38,-1.61 -48.62,-1.51 -0.44,0.18 -0.94,0.15 -1.35,-0.09 -0.41,-0.25 -0.68,-0.67 -0.73,-1.14 -5.53,-54.24 -21.45,-70.2 -25.12,-73.2 -5.52,4.05 -24.72,19.92 -40.2,54.1 -14.4,31.81 -18.6,68.05 -18.64,68.41 -0.03,0.31 -0.17,0.61 -0.38,0.84 -0.22,0.25 -22.54,25.25 -35.81,63.69 -11.2,32.46 -15.38,66 -16.44,76.04 8.8,-5.39 38.32,-22.5 64.46,-26.88 4.33,-0.72 9.01,-1.09 13.88,-1.09 29.8,0 66.67,13.97 75.41,46.21 11.53,42.52 -24.39,89.43 -46.82,113.61 -21.51,23.18 -41.54,37.36 -50.8,43.32 5.27,-0.61 10.72,-1.69 16.39,-2.81 11.66,-2.31 24.88,-4.92 41.44,-4.66 26.91,0.45 43.17,3.63 48.63,4.9 -1.44,-27.25 13.07,-65.86 24.78,-97.04 4.78,-12.7 9.29,-24.7 12.1,-34.27 9.11,-30.97 -0.13,-55.47 -0.22,-55.71 -0.2,-0.51 -0.11,-1.08 0.24,-1.5 0.35,-0.42 0.9,-0.62 1.43,-0.52 34.14,6.47 52.6,-3.11 58.5,-7.08 -41.26,-15.01 -67.47,-57.07 -67.74,-57.5 -0.32,-0.53 -0.29,-1.2 0.09,-1.69 0.37,-0.49 1.01,-0.71 1.6,-0.54 0.37,0.11 37.64,10.52 63.54,12.1 25.64,1.56 42.02,-3.77 44.77,-5.79 2.76,-2.05 22.51,-34.3 25.08,-54.28 1.21,-9.35 0.6,-14.34 -2.09,-17.21 z m -104.23,14.38 c -0.16,0.46 -0.53,0.81 -1,0.95 -0.12,0.03 -11.09805,-2.18536 -21.51805,-0.20536 -10.49,1.99 -17.54195,7.59536 -17.80195,7.59536 -0.5,0 -0.97,-0.25 -1.24,-0.66 -0.28,-0.42 -0.34,-0.94 -0.14,-1.41 0.15,-0.38 3.92,-9.42 11.19,-17.69 3.1,-3.54 6.5,-5.39 10.1,-5.5 3.99,-0.11 8.06,1.89 12.11,5.97 4.48,4.51 7.96,9.38 8.11,9.59 0.28,0.39 0.35,0.9 0.19,1.36 z" id="path5" sodipodi:nodetypes="cccccccccccccccscccccccccscccccccccsccsccccccs"></path>
    <path d="m 457.87,131.03 c -0.15,-0.21 -3.63,-5.08 -8.11,-9.59 -4.05,-4.08 -8.12,-6.08 -12.11,-5.97 -3.6,0.11 -7,1.96 -10.1,5.5 -7.27,8.27 -11.04,17.31 -11.19,17.69 -0.2,0.47 -0.14,0.99 0.14,1.41 0.27,0.41 0.74,0.66 1.24,0.66 0.26,0 8.31732,-4.37658 18.80732,-6.36658 10.42,-1.98 20.39268,-0.99342 20.51268,-1.02342 0.47,-0.14 0.84,-0.49 1,-0.95 0.16,-0.46 0.09,-0.97 -0.19,-1.36 z m -21.99439,0.27171 c -6.49,1.23 -13.04561,6.15829 -15.74561,6.32829 1.54,-3.13 4.81,-9.15 9.67,-14.68 2.54,-2.89 5.21,-4.39 7.94,-4.48 h 0.25 c 3.05,0 6.3,1.71 9.64,5.08 2.72,2.74 5.11,5.69 6.5,7.49 -3.83,1.05 -10.58439,-1.18829 -18.25439,0.26171 z" class="" id="path6" sodipodi:nodetypes="ccccccsccscccccsccc"></path>
    <path d="m 552.64,228.09 c -8.07,-15.67 -39.16,-32.67 -76.54,-23.82 -0.48,0.11 -0.87,0.46 -1.05,0.91 -0.18,0.46 -0.13,0.98 0.15,1.39 0.53,0.78 13.22,19.38 38.82,33.27 9.48,5.14 17.8,7.22 24.38,7.22 5.89,0 10.39,-1.67 13.08,-4.3 3.69,-3.61 4.11,-8.95 1.16,-14.67 z m -3.26,12.52 c -4.75,4.65 -17.39,5.57 -33.93,-3.41 -20.36,-11.05 -32.59,-25.5 -36.44,-30.51 34.89,-7.34 63.5,8.28 70.97,22.77 2.33,4.53 2.12,8.5 -0.6,11.15 z" id="path7"></path>
    <path class="cls-1" d="m 549.38,240.61 c -4.75,4.65 -17.39,5.57 -33.93,-3.41 -20.36,-11.05 -32.59,-25.5 -36.44,-30.51 34.89,-7.34 63.5,8.28 70.97,22.77 2.33,4.53 2.12,8.5 -0.6,11.15 z" id="path8" style="fill: rgb(255, 85, 85); --darkreader-inline-fill: var(--darkreader-text-ff5555, #f85d59);" data-darkreader-inline-fill=""></path>
  </g>
</svg></svg><style>@media (prefers-color-scheme: light) { :root { filter: contrast(1) brightness(0.1); } }
@media (prefers-color-scheme: dark) { :root { filter: none; } }
</style></svg>